<?xml version="1.0" encoding="UTF-8" standalone="no"?>
<svg
   xmlns:dc="http://purl.org/dc/elements/1.1/"
   xmlns:cc="http://creativecommons.org/ns#"
   xmlns:rdf="http://www.w3.org/1999/02/22-rdf-syntax-ns#"
   xmlns:svg="http://www.w3.org/2000/svg"
   xmlns="http://www.w3.org/2000/svg"
   xmlns:sodipodi="http://sodipodi.sourceforge.net/DTD/sodipodi-0.dtd"
   xmlns:inkscape="http://www.inkscape.org/namespaces/inkscape"
   viewBox="0 0 760.34515 637.64325"
   height="637.64325"
   width="760.34515"
   xml:space="preserve"
   id="svg815"
   version="1.1"
   sodipodi:docname="Logo.svg"
   inkscape:version="0.92.4 (5da689c313, 2019-01-14)"><sodipodi:namedview
     pagecolor="#ffffff"
     bordercolor="#666666"
     borderopacity="1"
     objecttolerance="10"
     gridtolerance="10"
     guidetolerance="10"
     inkscape:pageopacity="0"
     inkscape:pageshadow="2"
     inkscape:window-width="2560"
     inkscape:window-height="1377"
     id="namedview63"
     showgrid="false"
     inkscape:zoom="0.71563441"
     inkscape:cx="782.96449"
     inkscape:cy="357.80436"
     inkscape:window-x="2552"
     inkscape:window-y="-8"
     inkscape:window-maximized="1"
     inkscape:current-layer="svg815" /><title
     id="title1001">AutoSum Logo</title><metadata
     id="metadata821"><rdf:RDF><cc:Work
         rdf:about=""><dc:format>image/svg+xml</dc:format><dc:type
           rdf:resource="http://purl.org/dc/dcmitype/StillImage" /><dc:title>AutoSum Logo</dc:title></cc:Work></rdf:RDF></metadata><defs
     id="defs819"><clipPath
       id="clipPath915"
       clipPathUnits="userSpaceOnUse"><path
         id="path913"
         d="M 0,396.056 H 595.276 V 0 H 0 Z"
         inkscape:connector-curvature="0" /></clipPath></defs><g
     id="g825"
     transform="matrix(1.3333333,0,0,-1.3333333,551.87354,205.77743)"><path
       inkscape:connector-curvature="0"
       d="M 0,0 -54.192,33.647 4.062,70.803 62.098,37.723 Z"
       style="fill:#ffffff;fill-opacity:1;fill-rule:nonzero;stroke:none"
       id="path827" /></g><g
     id="g829"
     transform="matrix(1.3333333,0,0,-1.3333333,9.4444901,206.15303)"><path
       inkscape:connector-curvature="0"
       d="M 0,0 59.303,33.292 91.187,9.06 105.853,-1.143 59.94,-35.577 Z"
       style="fill:#fbcf0b;fill-opacity:1;fill-rule:nonzero;stroke:none"
       id="path831" /></g><g
     id="g833"
     transform="matrix(1.3333333,0,0,-1.3333333,80.863155,252.06516)"><path
       inkscape:connector-curvature="0"
       d="M 0,0 59.303,33.292 96.925,12.248 106.49,6.51 59.94,-35.576 Z"
       style="fill:#dc2126;fill-opacity:1;fill-rule:nonzero;stroke:none"
       id="path835" /></g><g
     id="g837"
     transform="matrix(1.3333333,0,0,-1.3333333,88.231684,167.60943)"><path
       inkscape:connector-curvature="0"
       d="M 0,0 59.303,33.291 85.447,11.61 96.075,0.558 51.013,-30.9 Z"
       style="fill:#fbcf0b;fill-opacity:1;fill-rule:nonzero;stroke:none"
       id="path839" /></g><g
     id="g841"
     transform="matrix(1.3333333,0,0,-1.3333333,156.24928,205.58609)"><path
       inkscape:connector-curvature="0"
       d="M 0,0 52.289,32.441 85.448,11.61 98.626,3.958 51.014,-30.9 Z"
       style="fill:#ffffff;fill-opacity:1;fill-rule:nonzero;stroke:none"
       id="path843" /></g><g
     id="g845"
     transform="matrix(1.3333333,0,0,-1.3333333,223.70035,164.03196)"><path
       inkscape:connector-curvature="0"
       d="M 0,0 43.361,27.632 79.071,9.14 82.046,-6.164 48.038,-27.207 Z"
       style="fill:#dc2126;fill-opacity:1;fill-rule:nonzero;stroke:none"
       id="path847" /></g><g
     id="g849"
     transform="matrix(1.3333333,0,0,-1.3333333,290.58448,202.00849)"><path
       inkscape:connector-curvature="0"
       d="M 0,0 26.357,16.154 27.207,7.227 25.932,-2.55 25.507,-17.004 Z"
       style="fill:#ffffff;fill-opacity:1;fill-rule:nonzero;stroke:none"
       id="path851" /></g><g
     id="g853"
     transform="matrix(1.3333333,0,0,-1.3333333,286.61701,130.58996)"><path
       inkscape:connector-curvature="0"
       d="M 0,0 43.361,27.632 54.414,20.831 45.062,0.425 34.434,-19.555 Z"
       style="fill:#dc2126;fill-opacity:1;fill-rule:nonzero;stroke:none"
       id="path855" /></g><g
     id="g857"
     transform="matrix(1.3333333,0,0,-1.3333333,221.43341,90.912895)"><path
       inkscape:connector-curvature="0"
       d="M 0,0 43.361,27.632 75.245,9.353 94.375,-1.7 48.037,-27.207 Z"
       style="fill:#dc2126;fill-opacity:1;fill-rule:nonzero;stroke:none"
       id="path859" /></g><g
     id="g861"
     transform="matrix(1.3333333,0,0,-1.3333333,288.88395,52.936359)"><path
       inkscape:connector-curvature="0"
       d="M 0,0 43.361,27.632 75.245,9.353 94.375,-1.7 48.038,-27.207 Z"
       style="fill:#ffffff;fill-opacity:1;fill-rule:nonzero;stroke:none"
       id="path863" /></g><g
     id="g865"
     transform="matrix(1.3333333,0,0,-1.3333333,153.41528,125.66543)"><path
       inkscape:connector-curvature="0"
       d="M 0,0 49.313,29.041 78.646,7.36 94.375,-1.568 51.014,-30.9 Z"
       style="fill:#fbcf0b;fill-opacity:1;fill-rule:nonzero;stroke:none"
       id="path867" /></g><g
     id="g869"
     transform="matrix(1.3333333,0,0,-1.3333333,150.58128,288.62383)"><path
       inkscape:connector-curvature="0"
       d="M 0,0 59.303,33.291 96.925,12.248 106.49,6.509 54.202,-30.476 Z"
       style="fill:#dc2126;fill-opacity:1;fill-rule:nonzero;stroke:none"
       id="path871" /></g><g
     id="g873"
     transform="matrix(1.3333333,0,0,-1.3333333,217.74928,243.56263)"><path
       inkscape:connector-curvature="0"
       d="M 0,0 59.303,33.291 79.283,16.287 84.172,-5.606 54.201,-30.476 Z"
       style="fill:#dc2126;fill-opacity:1;fill-rule:nonzero;stroke:none"
       id="path875" /></g><g
     id="g877"
     transform="matrix(1.3333333,0,0,-1.3333333,213.49795,327.73449)"><path
       inkscape:connector-curvature="0"
       d="M 0,0 59.303,33.291 96.925,12.248 106.49,6.509 54.202,-30.476 Z"
       style="fill:#fbcf0b;fill-opacity:1;fill-rule:nonzero;stroke:none"
       id="path879" /></g><g
     id="g881"
     transform="matrix(1.3333333,0,0,-1.3333333,288.31755,282.20969)"><path
       inkscape:connector-curvature="0"
       d="m 0,0 32.308,16.364 5.526,-22.105 8.503,-16.155 7.865,-8.58 z"
       style="fill:#ffffff;fill-opacity:1;fill-rule:nonzero;stroke:none"
       id="path883" /></g><g
     id="g885"
     transform="matrix(1.3333333,0,0,-1.3333333,276.41395,364.29436)"><path
       inkscape:connector-curvature="0"
       d="m 0,0 59.303,33.291 15.304,-24.23 26.145,-22.319 -44,-22.318 z"
       style="fill:#fbcf0b;fill-opacity:1;fill-rule:nonzero;stroke:none"
       id="path887" /></g><g
     id="g889"
     transform="matrix(1.3333333,0,0,-1.3333333,409.04928,116.70263)"><path
       inkscape:connector-curvature="0"
       d="m 0,0 57.39,33.159 48.463,-30.609 5.1,-6.376 -56.114,-27.42 z"
       style="fill:#dad9d8;fill-opacity:1;fill-rule:nonzero;stroke:none"
       id="path891" /></g><g
     id="g893"
     transform="matrix(1.3333333,0,0,-1.3333333,556.13661,205.12569)"><path
       inkscape:connector-curvature="0"
       d="M 0,0 57.391,33.159 95.65,12.753 101.39,-5.102 65.042,-41.474 Z"
       style="fill:#dad9d8;fill-opacity:1;fill-rule:nonzero;stroke:none"
       id="path895" /></g><g
     id="g897"
     transform="matrix(1.3333333,0,0,-1.3333333,369.93861,185.57103)"><path
       inkscape:connector-curvature="0"
       d="M 0,0 28.695,55.477 77.157,24.869 82.259,18.493 26.145,-8.927 Z"
       style="fill:#dc2126;fill-opacity:1;fill-rule:nonzero;stroke:none"
       id="path899" /></g><g
     id="g901"
     transform="matrix(1.3333333,0,0,-1.3333333,389.49341,293.54956)"><path
       inkscape:connector-curvature="0"
       d="M 0,0 57.391,33.159 105.853,2.551 118.606,-15.941 67.593,-46.549 Z"
       style="fill:#dad9d8;fill-opacity:1;fill-rule:nonzero;stroke:none"
       id="path903" /></g><g
     id="g905"
     transform="matrix(1.3333333,0,0,-1.3333333,365.68741,245.08609)"><path
       inkscape:connector-curvature="0"
       d="M 0,0 17.217,40.811 73.757,5.96 79.708,-1.301 14.241,-32.521 Z"
       style="fill:#fbcf0b;fill-opacity:1;fill-rule:nonzero;stroke:none"
       id="path907" /></g><path
     id="path919"
     style="fill:#414141;fill-opacity:1;fill-rule:nonzero;stroke:none;stroke-width:1.33333325"
     d="m 525.35794,355.85556 c -77.416,0 -140.172,-62.048 -140.172,-138.588 0,-76.53999 62.756,-138.587995 140.172,-138.587995 77.416,0 140.172,62.048005 140.172,138.587995 0,76.54 -62.756,138.588 -140.172,138.588 m 230.14533,66.49867 c 2.01333,-6.72 0.29733,-14.268 -5.304,-19.29467 l -94.18,-84.624 c 22.156,-27.89067 35.47867,-62.95866 35.47867,-101.168 0,-90.64266 -74.35467,-164.123997 -166.076,-164.123997 -91.72133,0 -166.076,73.481337 -166.076,164.123997 0,90.644 74.35467,164.124 166.076,164.124 36.95467,0 70.97466,-12.07467 98.56533,-32.248 l 87.80667,98.6 c 3.78,4.23866 9.048,6.4 14.34266,6.4 2.73333,0 5.39733,-0.78534 7.94533,-1.952 2.32267,0.94 4.792,1.42133 7.26667,1.42133 4.848,0 9.70533,-1.81733 13.43333,-5.452 7.21867,-7.07333 7.36267,-18.36133 0.72134,-25.80666"
     inkscape:connector-curvature="0" /><g
     id="g921"
     transform="matrix(1.3333333,0,0,-1.3333333,351.57208,398.24102)"><path
       inkscape:connector-curvature="0"
       d="m 0,0 -42.696,24.649 c 8.928,6.153 24.167,16.607 41.757,28.435 0.827,-0.497 1.43,-0.804 2.234,-1.282 8.207,-12.495 18.227,-23.87 29.927,-33.777 z m -90.435,52.211 c 8.201,5.66 24.733,17.024 43.853,29.888 3.416,-2.203 6.892,-4.429 10.229,-6.588 9.608,-6.213 18.901,-12.219 27.228,-17.422 -18.632,-12.562 -34.313,-23.36 -41.917,-28.621 z m -47.741,27.561 c 6.376,4.411 24.029,16.584 45.279,30.893 C -80.87,103.784 -67.81,95.728 -54.564,87.242 -75.417,73.178 -92.762,61.194 -98.773,57.024 Z m -51.637,29.814 c 9.267,6.382 24.42,16.758 41.686,28.358 9.669,-5.016 19.726,-9.898 30.736,-14.559 4.732,-2 10.213,-4.781 16.016,-7.91 -23.811,-16.077 -42.628,-29.149 -44.502,-30.454 l 0.928,-1.336 z m -55.838,32.237 47.888,27.649 c 12.539,-9.761 26.071,-18.63 40.943,-26.86 -17.866,-12.038 -33.235,-22.6 -41.343,-28.205 z m 101.609,58.667 c 11.878,-9.663 24.191,-17.731 36.912,-25.097 -13.595,-8.72 -27.992,-18.226 -41.518,-27.289 -14.929,8.011 -28.449,16.638 -40.921,26.1 z m 44.723,25.822 c 12.027,-9.159 24.492,-16.854 37.367,-23.878 -8.926,-4.528 -22.045,-12.391 -36.904,-21.782 -12.852,7.29 -25.219,15.191 -37.07,24.524 z m 48.043,27.738 c 13.434,-10.185 27.385,-18.538 41.863,-26.221 -12.595,-6.517 -26.979,-13.537 -42.855,-20.766 -13.471,7.15 -26.416,14.87 -38.836,23.992 z m 51.262,29.597 40.653,-23.51 c -6.191,-4.496 -12.069,-9.301 -17.478,-14.541 -6.769,-3.871 -14.426,-8.147 -23.298,-12.87 -14.946,7.759 -29.248,16.069 -42.917,26.071 z M -19.687,99.88 c 2.705,-11.23 6.76,-22.006 11.881,-32.275 -7.444,4.679 -15.357,9.747 -23.813,15.218 -2.308,1.493 -4.728,3.04 -7.079,4.559 6.236,4.172 12.633,8.33 19.011,12.498 m -26.556,41.595 c 7.331,-4.314 15.055,-9.154 22.736,-13.941 0.33,-6.202 1.017,-12.31 2.076,-18.343 -8.503,-5.559 -17.079,-11.166 -25.267,-16.658 -13.027,8.371 -25.961,16.415 -38.155,23.53 12.62,8.451 25.929,17.245 38.61,25.412 m -34.441,19.24 c 4.819,-2.593 9.666,-5.187 14.541,-7.865 3.701,-2.029 7.545,-4.204 11.45,-6.444 -12.83,-8.301 -26.149,-17.125 -38.576,-25.469 -7.556,4.2 -14.677,7.915 -20.72,10.47 -9.182,3.886 -17.74,7.901 -25.945,12.021 13.657,9.122 27.991,18.552 41.288,27.036 5.901,-3.279 11.889,-6.493 17.962,-9.749 m 42.668,-13.981 c 5.582,3.547 10.468,6.503 15.434,9.531 -0.828,-6.007 -1.173,-12.124 -1.269,-18.282 -4.765,2.979 -9.569,6.019 -14.165,8.751 m 2.641,41.773 c 4.904,-2.494 9.85,-5.003 14.839,-7.582 1.02,-0.529 2.108,-1.123 3.159,-1.681 -1.136,-3.759 -2,-7.586 -2.842,-11.439 -7.869,-4.624 -16.47,-9.851 -26.256,-16.105 -5.306,3.081 -10.512,6.055 -15.473,8.774 -4.904,2.693 -9.779,5.315 -14.626,7.909 -4.618,2.478 -9.143,4.939 -13.658,7.412 15.416,9.672 28.633,17.464 36.249,20.876 0.494,0.221 0.92,0.432 1.41,0.654 5.66,-2.957 11.384,-5.869 17.198,-8.818 m 18.835,0.157 c -4.988,2.593 -9.962,5.102 -14.895,7.61 -3.761,1.908 -7.428,3.807 -11.122,5.705 15.869,7.358 30.08,14.413 42.49,20.941 1.006,-0.516 2.025,-1.033 3.038,-1.548 -7.209,-10.538 -13.069,-21.851 -17.455,-33.814 -0.683,0.367 -1.398,0.765 -2.056,1.106 m 1.234,-53.02 c 0,53.521 29.867,102.548 77.952,128.585 l -8.564,4.944 -48.583,28.052 c -3.345,1.927 -7.568,1.955 -10.998,0 L -258.222,151.319 c -3.373,-1.97 -5.471,-5.612 -5.457,-9.524 0,-3.898 2.112,-7.54 5.485,-9.482 L -5.485,-13.592 c 1.701,-0.977 3.6,-1.46 5.485,-1.46 1.899,0 3.798,0.496 5.485,1.475 l 39.144,22.598 7.154,4.127 c -41.995,27.5 -67.089,73.026 -67.089,122.496"
       style="fill:#414141;fill-opacity:1;fill-rule:nonzero;stroke:none"
       id="path923" /></g><g
     id="g925"
     transform="matrix(1.3333333,0,0,-1.3333333,399.69648,204.27543)"><path
       inkscape:connector-curvature="0"
       d="m 0,0 57.39,33.159 48.463,-30.608 5.101,-6.377 -56.115,-27.42 z"
       style="fill:#dad9d8;fill-opacity:1;fill-rule:nonzero;stroke:none"
       id="path927" /></g><g
     id="g929"
     transform="matrix(1.3333333,0,0,-1.3333333,470.26421,254.61596)"><path
       inkscape:connector-curvature="0"
       d="m 0,0 66.955,37.755 56.54,-34.851 5.951,-7.26 -65.467,-31.22 z"
       style="fill:#dad9d8;fill-opacity:1;fill-rule:nonzero;stroke:none"
       id="path931" /></g><g
     id="g933"
     transform="matrix(1.3333333,0,0,-1.3333333,400.26808,294.31516)"><path
       inkscape:connector-curvature="0"
       d="m 0,0 c 21.273,13.492 39.865,24.627 50.088,29.204 0.173,0.076 0.324,0.154 0.497,0.233 C 75.647,13.492 96.364,-0.092 108.033,-7.811 L 55.528,-38.124 C 44.685,-30.527 24.604,-16.581 0,0 M 5.912,69.748 C 25.396,78.7 42.909,87.329 58.231,95.33 74.15,85.68 89.747,76.016 104.127,66.963 88.642,58.956 70.956,50.323 51.388,41.434 37.151,50.459 21.713,60.097 5.912,69.748 m 5.454,65.367 c 22.593,12.032 39.686,22.074 50.406,28.689 l 47.677,-27.571 C 98.464,129.49 81.247,119.44 58.612,107.459 42.815,116.983 26.818,126.374 11.366,135.115 m 156.153,-32.466 c -10.41,-6.473 -28.48,-17.171 -52.614,-29.999 -14.247,9.001 -29.75,18.655 -45.789,28.425 23.346,12.527 40.808,22.952 50.721,29.147 z m -0.275,-76.274 -48.999,-28.29 c -9.712,6.45 -30.478,20.136 -56.297,36.625 19.592,9.035 37.143,17.718 52.461,25.75 23,-14.587 41.873,-26.88 52.835,-34.085 M 45.062,-44.166 c 6.955,-3.26 14.234,-5.855 21.874,-7.684 l 136.418,78.751 c 2.104,7.294 3.446,14.83 4.025,22.644 L 177.496,32.292 c -9.219,6.078 -28.331,18.598 -52.313,33.853 26.071,14.041 43.976,25.005 52.659,30.535 l 28.066,-16.233 c -1.879,9.134 -5.19,17.673 -9.148,25.861 L 86.21,170.135 C 52.75,167.923 23.454,151.677 4.006,127.08 18.272,119.04 32.977,110.501 47.677,101.689 32.191,93.721 14.513,85.132 -4.936,76.338 c -4.155,2.511 -8.262,4.867 -12.376,7.26 -0.858,-3.626 -1.278,-7.369 -1.774,-11.121 0.939,-0.552 1.858,-1.06 2.811,-1.632 -0.939,-0.492 -2.121,-1.18 -3.155,-1.75 -0.384,-3.774 -1.153,-7.436 -1.153,-11.308 0,-0.472 0.134,-0.906 0.14,-1.375 5.782,3.307 11.02,6.181 14.895,7.979 15.782,-9.584 31.243,-19.21 45.7,-28.343 C 28.562,30.142 11.285,19.709 -8.096,7.39 -2.875,-2.901 3.61,-12.424 11.614,-20.624 25.465,-30.068 37.299,-38.257 45.446,-43.945 Z"
       style="fill:#414141;fill-opacity:1;fill-rule:nonzero;stroke:none"
       id="path935" /></g><text
     xml:space="preserve"
     style="font-style:normal;font-weight:normal;font-size:40px;line-height:1.25;font-family:sans-serif;letter-spacing:0px;word-spacing:0px;fill:#414141;fill-opacity:1;stroke:none"
     x="160.90857"
     y="549.03101"
     id="text872"><tspan
       sodipodi:role="line"
       x="160.90857"
       y="549.03101"
       style="font-style:normal;font-variant:normal;font-weight:bold;font-stretch:normal;font-size:96px;font-family:ShellBold;-inkscape-font-specification:'ShellBold Bold';fill:#414141;fill-opacity:1"
       id="tspan878">AutoSum</tspan></text>
<text
     xml:space="preserve"
     style="font-style:normal;font-weight:normal;font-size:40px;line-height:1.25;font-family:sans-serif;letter-spacing:0px;word-spacing:0px;fill:#414141;fill-opacity:1;stroke:none"
     x="183.26633"
     y="627.28326"
     id="text884"><tspan
       sodipodi:role="line"
       id="tspan882"
       x="183.26633"
       y="627.28326"
       style="font-style:normal;font-variant:normal;font-weight:normal;font-stretch:normal;font-family:ShellBold;-inkscape-font-specification:ShellBold;fill:#414141;fill-opacity:1">Actionable Insights</tspan></text>
</svg>